%TF.GenerationSoftware,KiCad,Pcbnew,9.0.0*%
%TF.CreationDate,2025-10-09T12:59:08+03:00*%
%TF.ProjectId,keyatura,6b657961-7475-4726-912e-6b696361645f,rev?*%
%TF.SameCoordinates,Original*%
%TF.FileFunction,Profile,NP*%
%FSLAX46Y46*%
G04 Gerber Fmt 4.6, Leading zero omitted, Abs format (unit mm)*
G04 Created by KiCad (PCBNEW 9.0.0) date 2025-10-09 12:59:08*
%MOMM*%
%LPD*%
G01*
G04 APERTURE LIST*
%TA.AperFunction,Profile*%
%ADD10C,0.200000*%
%TD*%
G04 APERTURE END LIST*
D10*
X142808174Y-153765978D02*
X152470951Y-153765978D01*
X148103848Y-48964271D02*
X148103848Y-80453432D01*
X161418446Y-48035505D02*
X207250305Y-28774140D01*
X142808174Y-153765978D02*
G75*
G02*
X131387101Y-150184232I26J20000078D01*
G01*
X147491366Y-48038011D02*
G75*
G02*
X148103834Y-48964271I-387566J-921889D01*
G01*
X266173731Y-36309620D02*
X281752305Y-77976409D01*
X95083254Y-27621780D02*
X51591027Y-29824491D01*
X207250305Y-28774140D02*
G75*
G02*
X213820593Y-27621796I5811495J-13828260D01*
G01*
X110062427Y-135510874D02*
G75*
G02*
X111768006Y-136536499I-6859827J-13338626D01*
G01*
X177516794Y-150184183D02*
G75*
G02*
X166095648Y-153765953I-11421094J16418183D01*
G01*
X42730107Y-36309647D02*
G75*
G02*
X51591027Y-29824492I9366703J-3502003D01*
G01*
X147491366Y-48038011D02*
X101653543Y-28774140D01*
X159803789Y-81441697D02*
X154451924Y-81441697D01*
X197135842Y-136536500D02*
G75*
G02*
X198841465Y-135510846I8566358J-12314500D01*
G01*
X274544220Y-96578137D02*
X198841467Y-135510850D01*
X34341483Y-96568806D02*
X110062427Y-135510874D01*
X149103974Y-81441697D02*
G75*
G02*
X148103773Y-80453433I-174J1000097D01*
G01*
X34341483Y-96568806D02*
G75*
G02*
X27151589Y-77976359I6860117J13339306D01*
G01*
X111768006Y-136536500D02*
X131387109Y-150184221D01*
X160800000Y-48960000D02*
G75*
G02*
X161418451Y-48035518I1000200J0D01*
G01*
X95083254Y-27621780D02*
G75*
G02*
X101653541Y-28774144I758746J-14980620D01*
G01*
X152470951Y-153765978D02*
X156432897Y-153765978D01*
X281752305Y-77976409D02*
G75*
G02*
X274544214Y-96578126I-14050005J-5253091D01*
G01*
X257312816Y-29824491D02*
G75*
G02*
X266173730Y-36309620I-505816J-9987209D01*
G01*
X160800000Y-48960000D02*
X160800000Y-80441700D01*
X166095648Y-153765978D02*
X156432897Y-153765978D01*
X213820594Y-27621780D02*
X257312816Y-29824491D01*
X149103974Y-81441697D02*
X154451924Y-81441697D01*
X42730107Y-36309647D02*
X27151565Y-77976350D01*
X197135842Y-136536500D02*
X177516794Y-150184183D01*
X160800000Y-80441700D02*
G75*
G02*
X159800000Y-81441700I-1000000J0D01*
G01*
M02*
